# Blender 4.3.2
# www.blender.org
mtllib bridge.mtl
o bridge
v -1.000000 0.500000 1.000000
v -1.000000 1.000000 1.000000
v -1.000000 0.500000 -1.000000
v -1.000000 1.000000 -1.000000
v 1.000000 0.500000 1.000000
v 1.000000 1.000000 1.000000
v 1.000000 0.500000 -1.000000
v 1.000000 1.000000 -1.000000
vn -1.0000 -0.0000 -0.0000
vn -0.0000 -0.0000 -1.0000
vn 1.0000 -0.0000 -0.0000
vn -0.0000 -0.0000 1.0000
vn -0.0000 -1.0000 -0.0000
vn -0.0000 1.0000 -0.0000
vt 1.000000 1.000000
vt 0.000000 0.750000
vt 1.000000 0.750000
vt 0.000000 1.000000
vt 0.000000 0.000000
vt 1.000000 0.000000
s 0
usemtl primary
f 7/1/5 1/5/5 3/4/5
f 4/4/6 6/6/6 8/1/6
f 7/1/5 5/6/5 1/5/5
f 4/4/6 2/5/6 6/6/6
usemtl secondary
f 2/1/1 3/2/1 1/3/1
f 4/1/2 7/2/2 3/3/2
f 6/4/3 5/2/3 7/3/3
f 2/4/4 1/2/4 5/3/4
f 2/1/1 4/4/1 3/2/1
f 4/1/2 8/4/2 7/2/2
f 6/4/3 7/3/3 8/1/3
f 2/4/4 5/3/4 6/1/4
