# Blender 3.4.1
# www.blender.org
o Corner_2tex
v -1.000000 -1.000000 -1.000000
v -1.000000 1.000000 -1.000000
v 1.000000 -1.000000 -1.000000
v 1.000000 -1.000000 1.000000
v 1.000000 1.000000 -1.000000
v 1.000000 1.000000 1.000000
vn -0.0000 1.0000 -0.0000
vn -0.7071 -0.0000 0.7071
vn 1.0000 -0.0000 -0.0000
vn -0.0000 -0.0000 -1.0000
vn -0.0000 -1.0000 -0.0000
vt 0.000000 -0.000000
vt -0.000000 1.000000
vt 1.000000 0.000000
vt -0.000000 1.000000
vt 1.000000 0.500000
vt 0.000000 0.500000
vt 1.000000 -0.000000
vt 1.000000 1.000000
vt 0.000000 0.000000
vt 1.000000 0.500000
vt 1.000000 -0.000000
vt 0.000000 -0.000000
vt 1.000000 1.000000
vt 0.000000 0.500000
vt 1.000000 0.500000
vt 1.000000 0.500000
vt 0.000000 0.500000
s 0
f 5/13/1 2/4/1 6/16/1
f 4/11/2 2/6/2 1/1/2
f 4/12/3 3/7/3 5/15/3
f 5/14/4 1/3/4 2/5/4
f 4/10/5 1/2/5 3/8/5
f 4/11/2 6/16/2 2/6/2
f 5/14/4 3/9/4 1/3/4
f 4/12/3 5/15/3 6/17/3
