# Blender 3.5.1
# www.blender.org
o Corner
v -1.000000 -1.000000 -1.000000
v -1.000000 1.000000 -1.000000
v 1.000000 -1.000000 -1.000000
v 1.000000 -1.000000 1.000000
v 1.000000 1.000000 -1.000000
v 1.000000 1.000000 1.000000
vn -0.0000 1.0000 -0.0000
vn -0.7071 -0.0000 0.7071
vn 1.0000 -0.0000 -0.0000
vn -0.0000 -0.0000 -1.0000
vn -0.0000 -1.0000 -0.0000
vt 0.000000 -0.000000
vt -0.000000 1.000000
vt 1.000000 0.000000
vt 1.000000 1.000000
vt 0.000000 1.000000
vt 1.000000 1.000000
vt 1.000000 -0.000000
vt 0.000000 0.000000
vt 1.000000 -0.000000
vt 0.000000 -0.000000
vt 1.000000 1.000000
vt 0.000000 1.000000
vt 1.000000 -0.000000
vt 1.000000 1.000000
vt 0.000000 1.000000
s 0
g cullu
f 5/11/1 2/5/1 6/13/1
g nocull
f 4/9/2 2/5/2 1/1/2
g cullw
f 6/15/3 3/7/3 5/11/3
g culls
f 5/12/4 1/3/4 2/4/4
g culld
f 4/9/5 1/2/5 3/6/5
g nocull
f 4/9/2 6/14/2 2/5/2
g cullw
f 6/15/3 4/10/3 3/7/3
g culls
f 5/12/4 3/8/4 1/3/4
