# Blender 4.3.2
# www.blender.org
mtllib cube_marker.mtl
o cube_marker
v -0.900000 -0.900000 0.900000
v -0.900000 0.900000 0.900000
v -0.900000 -0.900000 -0.900000
v -0.900000 0.900000 -0.900000
v 0.900000 -0.900000 0.900000
v 0.900000 0.900000 0.900000
v 0.900000 -0.900000 -0.900000
v 0.900000 0.900000 -0.900000
vn -1.0000 -0.0000 -0.0000
vn -0.0000 -0.0000 -1.0000
vn 1.0000 -0.0000 -0.0000
vn -0.0000 -0.0000 1.0000
vn -0.0000 -1.0000 -0.0000
vn -0.0000 1.0000 -0.0000
vt 0.000000 1.000000
vt 0.000000 0.000000
vt 1.000000 0.000000
vt 1.000000 1.000000
s 0
usemtl primary
f 5/4/5 1/1/5 3/2/5
f 4/1/6 6/3/6 8/4/6
f 5/4/5 3/2/5 7/3/5
f 4/1/6 2/2/6 6/3/6
usemtl secondary
f 4/1/1 3/2/1 1/3/1
f 8/1/2 7/2/2 3/3/2
f 8/4/3 5/2/3 7/3/3
f 6/4/4 1/2/4 5/3/4
f 8/4/3 6/1/3 5/2/3
f 6/4/4 2/1/4 1/2/4
f 8/1/2 3/3/2 4/4/2
f 4/1/1 1/3/1 2/4/1
