# Blender 3.5.1
# www.blender.org
o Cylinder
v -0.400000 -1.000000 1.000000
v -0.400000 1.000000 1.000000
v -1.000000 -1.000000 -0.400000
v -1.000000 1.000000 -0.400000
v 1.000000 -1.000000 0.400000
v 1.000000 1.000000 0.400000
v 0.400000 -1.000000 -1.000000
v 0.400000 1.000000 -1.000000
v -0.400000 -1.000000 -1.000000
v -0.400000 1.000000 -1.000000
v 0.400000 -1.000000 1.000000
v 0.400000 1.000000 1.000000
v -1.000000 -1.000000 0.400000
v -1.000000 1.000000 0.400000
v 1.000000 -1.000000 -0.400000
v 1.000000 1.000000 -0.400000
v 0.000000 1.000000 0.000000
v 0.000000 -1.000000 0.000000
vn -1.0000 -0.0000 -0.0000
vn -0.0000 -0.0000 -1.0000
vn 1.0000 -0.0000 -0.0000
vn -0.0000 -0.0000 1.0000
vn -0.0000 -1.0000 -0.0000
vn -0.0000 1.0000 -0.0000
vn 0.7071 -0.0000 0.7071
vn -0.7071 -0.0000 -0.7071
vn 0.7071 -0.0000 -0.7071
vn -0.7071 -0.0000 0.7071
vt 0.277778 1.000000
vt 1.375000 0.000000
vt 0.277778 0.000000
vt 1.375000 1.000000
vt 0.000000 0.277778
vt 0.875000 0.000000
vt 0.000000 0.722222
vt 0.875000 1.000000
vt -0.125000 0.000000
vt 1.000000 0.722222
vt 1.000000 0.277778
vt -0.125000 1.000000
vt 0.375000 0.000000
vt 0.722222 0.000000
vt 0.722222 1.000000
vt 0.375000 1.000000
vt 0.277778 0.000000
vt 0.625000 0.000000
vt 0.277778 1.000000
vt 0.625000 1.000000
vt 1.625000 0.000000
vt 0.722222 1.000000
vt -0.375000 0.000000
vt 0.722222 0.000000
vt 1.625000 1.000000
vt -0.375000 1.000000
vt 0.000000 0.722222
vt 1.125000 0.000000
vt 0.000000 0.277778
vt 1.125000 1.000000
vt 1.000000 0.277778
vt 0.125000 0.000000
vt 1.000000 0.722222
vt 0.125000 1.000000
vt 0.500000 0.500000
vt 0.500000 0.500000
s 0
f 14/30/1 3/6/1 13/28/1
f 8/16/2 7/13/2 9/18/2
f 6/12/3 5/9/3 15/32/3
f 12/25/4 1/2/4 11/21/4
f 18/36/5 5/10/5 11/22/5
f 17/35/6 2/3/6 12/24/6
f 17/35/6 6/11/6 16/33/6
f 18/36/5 1/1/5 13/27/5
f 6/12/7 11/23/7 5/9/7
f 4/8/8 9/18/8 3/6/8
f 3/5/5 18/36/5 13/27/5
f 8/15/6 17/35/6 16/33/6
f 4/7/6 17/35/6 10/19/6
f 7/14/5 18/36/5 9/17/5
f 8/16/9 15/32/9 7/13/9
f 2/4/10 13/28/10 1/2/10
f 17/35/6 14/29/6 2/3/6
f 17/35/6 12/24/6 6/11/6
f 8/15/6 10/19/6 17/35/6
f 4/7/6 14/29/6 17/35/6
f 18/36/5 15/31/5 5/10/5
f 18/36/5 11/22/5 1/1/5
f 3/5/5 9/17/5 18/36/5
f 7/14/5 15/31/5 18/36/5
f 14/30/1 4/8/1 3/6/1
f 6/12/3 15/32/3 16/34/3
f 12/25/4 2/4/4 1/2/4
f 6/12/7 12/26/7 11/23/7
f 4/8/8 10/20/8 9/18/8
f 8/16/9 16/34/9 15/32/9
f 2/4/10 14/30/10 13/28/10
f 8/16/2 9/18/2 10/20/2
