# Blender 4.3.2
# www.blender.org
mtllib right_tetrahedron.mtl
o Right_Tetrahedron
v -1.000000 -1.000000 1.000000
v 1.000000 -1.000000 -1.000000
v -1.000000 1.000000 -1.000000
v -1.000000 -1.000000 -1.000000
v 1.000000 -1.000000 -1.000000
v -1.000000 1.000000 -1.000000
v -1.000000 -1.000000 -1.000000
vn -1.0000 -0.0000 -0.0000
vn 0.5774 0.5774 0.5774
vn -0.0000 -1.0000 -0.0000
vn -0.0000 -0.0000 -1.0000
vt 0.000000 0.000000
vt 1.000000 0.000000
vt 0.000000 1.000000
vt 0.500000 1.000000
vt 1.000000 1.000000
s 0
usemtl primary
f 1/1/2 5/2/2 6/4/2
f 1/3/3 4/1/3 2/2/3
usemtl secondary
f 4/1/1 1/2/1 3/3/1
f 7/2/4 6/5/4 5/1/4
