# Blender 4.3.2
# www.blender.org
mtllib tetrahedron_transition.mtl
o Tetrahedron_Transition
v -1.000000 -1.000000 1.000000
v -1.000000 1.000000 1.000000
v -1.000000 -1.000000 -1.000000
v -1.000000 1.000000 -1.000000
v 1.000000 -1.000000 1.000000
v 1.000000 -1.000000 -1.000000
v 1.000000 1.000000 -1.000000
vn -1.0000 -0.0000 -0.0000
vn -0.0000 -0.0000 -1.0000
vn 1.0000 -0.0000 -0.0000
vn -0.0000 -0.0000 1.0000
vn -0.0000 -1.0000 -0.0000
vn -0.0000 1.0000 -0.0000
vn 0.5774 0.5774 0.5774
vt 0.000000 1.000000
vt 0.000000 0.000000
vt 1.000000 0.000000
vt 1.000000 1.000000
vt 0.500000 0.000000
s 0
usemtl primary
f 5/4/5 3/2/5 6/3/5
f 2/3/6 7/1/6 4/4/6
f 7/4/7 2/1/7 5/5/7
f 1/1/5 3/2/5 5/4/5
usemtl secondary
f 4/1/1 3/2/1 1/3/1
f 7/1/2 6/2/2 3/3/2
f 7/4/3 5/2/3 6/3/3
f 2/1/4 1/2/4 5/3/4
f 7/1/2 3/3/2 4/4/2
f 4/1/1 1/3/1 2/4/1
