# Blender 3.5.1
# www.blender.org
o Tetrahedron_Transition
v -1.000000 -1.000000 1.000000
v -1.000000 1.000000 1.000000
v -1.000000 -1.000000 -1.000000
v -1.000000 1.000000 -1.000000
v 1.000000 -1.000000 1.000000
v 1.000000 -1.000000 -1.000000
v 1.000000 1.000000 -1.000000
vn -1.0000 -0.0000 -0.0000
vn -0.0000 -0.0000 -1.0000
vn 1.0000 -0.0000 -0.0000
vn -0.0000 -0.0000 1.0000
vn -0.0000 -1.0000 -0.0000
vn -0.0000 1.0000 -0.0000
vn 0.5774 0.5774 0.5774
vt 0.000000 0.000000
vt 1.000000 0.000000
vt 0.000000 1.000000
vt 1.000000 0.000000
vt 1.000000 1.000000
vt 0.000000 1.000000
vt 1.000000 0.000000
vt 0.000000 0.000000
vt 1.000000 1.000000
vt 0.000000 1.000000
vt 0.000000 0.000000
vt 1.000000 0.000000
vt 0.500000 0.000000
vt 1.000000 1.000000
vt 0.000000 0.000000
vt 1.000000 0.000000
vt 0.000000 1.000000
vt 1.000000 1.000000
s 0
f 4/10/1 3/8/1 1/2/1
f 7/17/2 6/15/2 3/7/2
f 7/18/3 5/11/3 6/16/3
f 2/6/4 1/1/4 5/12/4
f 5/14/5 3/8/5 6/16/5
f 2/4/6 7/17/6 4/9/6
f 7/17/2 3/7/2 4/9/2
f 4/10/1 1/2/1 2/5/1
f 7/18/7 2/6/7 5/13/7
f 1/3/5 3/8/5 5/14/5
