# Blender 4.3.2
# www.blender.org
mtllib wedge.mtl
o Wedge
v 1.000000 -1.000000 1.000000
v -1.000000 -1.000000 1.000000
v 1.000000 -1.000000 -1.000000
v 1.000000 1.000000 -1.000000
v -1.000000 -1.000000 -1.000000
v -1.000000 1.000000 -1.000000
vn -1.0000 -0.0000 -0.0000
vn -0.0000 0.7071 0.7071
vn -0.0000 -0.0000 -1.0000
vn -0.0000 -1.0000 -0.0000
vn 1.0000 -0.0000 -0.0000
vt 0.000000 0.000000
vt 1.000000 0.000000
vt 0.000000 1.000000
vt 1.000000 1.000000
s 0
usemtl primary
f 4/4/2 2/1/2 1/2/2
f 5/1/4 1/4/4 2/3/4
f 4/4/2 6/3/2 2/1/2
f 5/1/4 3/2/4 1/4/4
usemtl secondary
f 5/1/1 2/2/1 6/3/1
f 4/3/3 3/1/3 5/2/3
f 4/4/5 1/1/5 3/2/5
f 4/3/3 5/2/3 6/4/3
