# Blender v3.0.1 OBJ File: 'shapes.blend'
# www.blender.org
o Wedge_Corner_Inner
v 1.000000 -1.000000 -1.000000
v 1.000000 1.000000 -1.000000
v -1.000000 -1.000000 -1.000000
v 1.000000 -1.000000 1.000000
v -1.000000 1.000000 -1.000000
v -1.000000 -1.000000 1.000000
v -1.000000 1.000000 1.000000
vt 1.000000 1.000000
vt -0.000000 -0.000000
vt 1.000000 -0.000000
vt 1.000000 1.000000
vt -0.000000 -0.000000
vt 1.000000 -0.000000
vt 0.000000 0.000000
vt 1.000000 1.000000
vt 0.000000 1.000000
vt 0.000000 1.000000
vt 1.000000 0.000000
vt 1.000000 1.000000
vt 0.000000 1.000000
vt 0.000000 0.000000
vt 1.000000 0.000000
vt -0.000000 1.000000
vn 0.0000 0.0000 -1.0000
vn -1.0000 0.0000 0.0000
vn 0.0000 -1.0000 0.0000
vn 0.0000 0.7071 0.7071
vn 0.7071 0.7071 0.0000
vn 1.0000 0.0000 0.0000
vn 0.0000 0.0000 1.0000
s off
f 5/1/1 1/2/1 3/3/1
f 7/4/2 3/5/2 6/6/2
f 6/7/3 1/8/3 4/9/3
f 5/10/4 4/11/4 2/12/4
f 5/1/5 7/13/5 4/14/5
f 1/15/6 2/12/6 4/14/6
f 6/7/7 4/11/7 7/13/7
f 5/1/1 2/16/1 1/2/1
f 7/4/2 5/10/2 3/5/2
f 6/7/3 3/3/3 1/8/3
