# Blender 3.5.1
# www.blender.org
o Wedge_Corner_Outer
v 1.000000 -1.000000 1.000000
v -1.000000 -1.000000 1.000000
v 1.000000 -1.000000 -1.000000
v -1.000000 1.000000 -1.000000
v -1.000000 -1.000000 -1.000000
v 1.000000 -1.000000 -1.000000
v -1.000000 1.000000 -1.000000
v -1.000000 -1.000000 -1.000000
vn -1.0000 -0.0000 -0.0000
vn -0.0000 0.7071 0.7071
vn -0.0000 -1.0000 -0.0000
vn 0.7071 0.7071 -0.0000
vn -0.0000 -0.0000 -1.0000
vt 1.000000 0.000000
vt -0.000000 -0.000000
vt 1.000000 1.000000
vt 1.000000 0.000000
vt 0.000000 0.000000
vt 0.000000 1.000000
vt 1.000000 0.000000
vt 0.000000 1.000000
vt 1.000000 1.000000
vt 0.000000 0.000000
vt 0.000000 0.000000
vt 1.000000 1.000000
vt 1.000000 0.000000
s 0
f 5/10/1 2/4/1 4/8/1
f 1/1/2 4/8/2 2/5/2
f 5/10/3 1/3/3 2/6/3
f 4/9/4 1/2/4 3/7/4
f 8/13/5 7/12/5 6/11/5
f 5/10/3 3/7/3 1/3/3
