# Blender 4.3.2
# www.blender.org
mtllib wedge_corner_outer.mtl
o Wedge_Corner_Outer
v 1.000000 -1.000000 1.000000
v -1.000000 -1.000000 1.000000
v 1.000000 -1.000000 -1.000000
v -1.000000 1.000000 -1.000000
v -1.000000 -1.000000 -1.000000
v 1.000000 -1.000000 -1.000000
v -1.000000 1.000000 -1.000000
v -1.000000 -1.000000 -1.000000
vn -1.0000 -0.0000 -0.0000
vn -0.0000 0.7071 0.7071
vn -0.0000 -1.0000 -0.0000
vn 0.7071 0.7071 -0.0000
vn -0.0000 -0.0000 -1.0000
vt 0.000000 0.000000
vt 1.000000 0.000000
vt 0.000000 1.000000
vt 1.000000 1.000000
s 0
usemtl primary
f 1/2/2 4/3/2 2/1/2
f 5/1/3 1/4/3 2/3/3
f 4/4/4 1/1/4 3/2/4
f 5/1/3 3/2/3 1/4/3
usemtl secondary
f 5/1/1 2/2/1 4/3/1
f 8/2/5 7/4/5 6/1/5
