# Blender 3.5.1
# www.blender.org
o Wedge
v 1.000000 -1.000000 1.000000
v -1.000000 -1.000000 1.000000
v 1.000000 -1.000000 -1.000000
v 1.000000 1.000000 -1.000000
v -1.000000 -1.000000 -1.000000
v -1.000000 1.000000 -1.000000
vn -1.0000 -0.0000 -0.0000
vn -0.0000 0.7071 0.7071
vn -0.0000 -0.0000 -1.0000
vn -0.0000 -1.0000 -0.0000
vn 1.0000 -0.0000 -0.0000
vt 1.000000 0.000000
vt -0.000000 -0.000000
vt 1.000000 1.000000
vt 1.000000 0.000000
vt 0.000000 1.000000
vt 0.000000 0.000000
vt -0.000000 -0.000000
vt 1.000000 0.000000
vt 1.000000 1.000000
vt -0.000000 1.000000
vt 1.000000 -0.000000
vt 0.000000 0.000000
vt 0.000000 1.000000
vt 1.000000 1.000000
s 0
g culle
f 5/12/1 2/4/1 6/13/1
g nocull
f 4/9/2 2/6/2 1/1/2
g culls
f 6/14/3 3/7/3 5/11/3
g culld
f 5/12/4 1/3/4 2/5/4
g cullw
f 4/9/5 1/2/5 3/8/5
g nocull
f 4/9/2 6/13/2 2/6/2
g culls
f 6/14/3 4/10/3 3/7/3
g culld
f 5/12/4 3/8/4 1/3/4
